<?xml version="1.0" encoding="utf-8"?>
<!-- Generator: Adobe Illustrator 27.7.0, SVG Export Plug-In . SVG Version: 6.00 Build 0)  -->
<svg version="1.1" id="Layer_1" xmlns="http://www.w3.org/2000/svg" xmlns:xlink="http://www.w3.org/1999/xlink" x="0px" y="0px"
	 viewBox="0 0 875.7 93.2" style="enable-background:new 0 0 875.7 93.2;" xml:space="preserve">
<style type="text/css">
	.st0{fill:#FFFFFF;}
	.st1{fill:#7800FF;}
</style>
<rect x="3" y="2.8" class="st0" width="365.4" height="87.6"/>
<rect x="379.1" y="2.4" class="st0" width="454.6" height="87.6"/>
<g>
	<path class="st1" d="M26,69.7c-0.5,1.2-1,2-1.5,2.4s-1,0.6-1.6,0.6c-0.7,0-1.2-0.2-1.7-0.7s-0.7-1.1-0.7-1.7c0-0.2,0-0.4,0.1-0.7
		s0.2-0.5,0.3-0.8l21.9-47.3c0.6-1.2,1.1-2,1.5-2.5c0.4-0.4,1-0.7,1.6-0.7c0.7,0,1.3,0.2,1.8,0.7s0.7,1,0.7,1.7c0,0.2,0,0.4-0.1,0.6
		c-0.1,0.2-0.1,0.5-0.3,0.7L26,69.7z"/>
	<path class="st1" d="M76.2,35.4c-0.3,0-0.6-0.1-0.8-0.3c-0.2-0.2-0.3-0.4-0.3-0.6V17.8c0-0.2,0.1-0.4,0.3-0.6
		c0.2-0.2,0.5-0.3,0.8-0.3h1.9c0.3,0,0.6,0.1,0.8,0.3c0.2,0.2,0.3,0.4,0.3,0.6v16.7c0,0.2-0.1,0.4-0.3,0.6c-0.2,0.2-0.5,0.3-0.8,0.3
		H76.2z"/>
	<path class="st1" d="M118,27.8h-6c-2.3,0-3.7-0.2-4.3-0.5c-0.6-0.4-0.9-1-0.9-2c0-0.8,0.2-1.5,0.7-1.9c0.5-0.4,1.2-0.6,2.1-0.6
		h11.6c0.6,0,1.1,0.1,1.5,0.4s0.5,0.6,0.5,1.1v39.6h11c0.9,0,1.5,0.2,2,0.6c0.4,0.4,0.6,1,0.6,1.8c0,1-0.2,1.6-0.6,2
		c-0.4,0.4-1.1,0.5-2.2,0.5h-25.9c-0.9,0-1.6-0.2-2.1-0.6c-0.5-0.4-0.7-1.1-0.7-1.9c0-0.8,0.2-1.4,0.7-1.8s1.2-0.6,2.2-0.6h9.7V27.8
		z"/>
	<path class="st1" d="M166.8,63.8h11.3c0.9,0,1.6,0.2,2,0.6c0.4,0.4,0.7,1,0.7,1.8c0,1-0.2,1.6-0.6,2c-0.4,0.4-1.2,0.5-2.3,0.5
		h-27.2c-0.9,0-1.6-0.2-2.1-0.6c-0.5-0.4-0.7-1.1-0.7-1.9c0-0.8,0.2-1.4,0.7-1.8s1.2-0.6,2.2-0.6h10.7V41.2h-6.9
		c-1,0-1.7-0.2-2.2-0.6c-0.5-0.4-0.8-1.1-0.8-1.9c0-0.8,0.2-1.4,0.7-1.8c0.5-0.4,1.2-0.6,2.1-0.6h10.3c0.6,0,1.1,0.1,1.5,0.4
		c0.4,0.3,0.5,0.6,0.5,1.1V63.8z M160.3,26.2c0-2.5,0.2-4.1,0.7-4.8s1.4-1,2.9-1c1.5,0,2.4,0.3,2.9,0.8c0.5,0.6,0.7,1.9,0.7,3.9
		c0,2-0.2,3.3-0.7,3.7c-0.4,0.5-1.4,0.7-2.9,0.7c-1.5,0-2.5-0.2-2.9-0.7S160.3,27.6,160.3,26.2z"/>
	<path class="st1" d="M206.3,43.6c-0.6,0-1-0.1-1.3-0.4c-0.3-0.3-0.4-0.9-0.5-1.8l-4.6-13v-0.4c0-0.6,0.1-1,0.4-1.3s0.7-0.4,1.2-0.4
		h10.4c0.5,0,0.9,0.1,1.2,0.4s0.4,0.7,0.4,1.3v0.4l-4.6,13c-0.1,0.9-0.3,1.5-0.5,1.8c-0.3,0.3-0.7,0.4-1.3,0.4H206.3z M206.3,51.4
		c-0.6,0-1,0.1-1.3,0.4c-0.3,0.3-0.4,0.9-0.5,1.8l-4.6,13V67c0,0.6,0.1,1,0.4,1.3s0.7,0.4,1.2,0.4h10.4c0.5,0,0.9-0.1,1.2-0.4
		s0.4-0.7,0.4-1.3v-0.4l-4.6-13c-0.1-0.9-0.3-1.5-0.5-1.8c-0.3-0.3-0.7-0.4-1.3-0.4H206.3z"/>
	<path class="st1" d="M234.6,66.2V60c0-1,0.2-1.8,0.6-2.2s1-0.7,1.9-0.7c1,0,1.7,0.7,2.3,2c0.4,0.8,0.7,1.4,1,1.8
		c1,1.3,2.4,2.3,4.4,3c1.9,0.8,4,1.1,6.4,1.1c2.5,0,4.5-0.5,6-1.5c1.5-1,2.2-2.3,2.2-4c0-1.7-0.6-2.8-1.8-3.6
		c-1.2-0.7-3.3-1.1-6.2-1.1h-1.9c-4.8,0-8.4-0.8-10.9-2.5c-2.5-1.7-3.8-4.1-3.8-7.2c0-3.1,1.2-5.5,3.7-7.2c2.4-1.7,5.9-2.6,10.3-2.6
		c1.8,0,3.6,0.3,5.5,0.8c1.9,0.5,2.9,0.8,3,0.8c0.3,0,0.8-0.2,1.5-0.7c0.7-0.5,1.4-0.7,2.1-0.7c0.8,0,1.4,0.3,1.8,0.9
		s0.6,1.5,0.6,2.6v4.1c0,1.2-0.2,2.1-0.6,2.7c-0.4,0.6-1,0.8-1.8,0.8c-0.7,0-1.6-0.6-2.6-1.8c-0.7-0.8-1.3-1.4-1.8-1.9
		c-1.2-1.1-2.6-2-4-2.5s-3.1-0.8-5-0.8c-2.2,0-4,0.5-5.3,1.5c-1.3,1-2,2.2-2,3.7c0,1.5,0.7,2.5,2.1,3.2c1.4,0.6,4.4,1,8.9,1.1
		c4.9,0.1,8.4,1,10.7,2.5s3.4,4,3.4,7.3c0,3.2-1.2,5.7-3.7,7.6c-2.5,1.9-5.8,2.8-10.1,2.8c-1.3,0-2.8-0.1-4.5-0.4
		c-1.6-0.2-3.7-0.7-6.2-1.2c-0.8,0.5-1.5,0.9-2.1,1.2c-0.6,0.3-1.1,0.4-1.5,0.4c-0.8,0-1.4-0.3-1.9-0.9
		C234.8,68.1,234.6,67.3,234.6,66.2z"/>
	<path class="st1" d="M290.8,27.8h-6c-2.3,0-3.7-0.2-4.3-0.5c-0.6-0.4-0.9-1-0.9-2c0-0.8,0.2-1.5,0.7-1.9c0.5-0.4,1.2-0.6,2.1-0.6
		h11.6c0.6,0,1.1,0.1,1.5,0.4s0.5,0.6,0.5,1.1v39.6h11c0.9,0,1.5,0.2,2,0.6c0.4,0.4,0.6,1,0.6,1.8c0,1-0.2,1.6-0.6,2
		c-0.4,0.4-1.1,0.5-2.2,0.5h-25.9c-0.9,0-1.6-0.2-2.1-0.6c-0.5-0.4-0.7-1.1-0.7-1.9c0-0.8,0.2-1.4,0.7-1.8s1.2-0.6,2.2-0.6h9.7V27.8
		z"/>
	<path class="st1" d="M328.4,69.7c-0.5,1.2-1,2-1.5,2.4s-1,0.6-1.6,0.6c-0.7,0-1.2-0.2-1.7-0.7s-0.7-1.1-0.7-1.7
		c0-0.2,0-0.4,0.1-0.7s0.2-0.5,0.3-0.8l21.9-47.3c0.6-1.2,1.1-2,1.5-2.5c0.4-0.4,1-0.7,1.6-0.7c0.7,0,1.3,0.2,1.8,0.7s0.7,1,0.7,1.7
		c0,0.2,0,0.4-0.1,0.6c-0.1,0.2-0.1,0.5-0.3,0.7L328.4,69.7z"/>
	<path class="st1" d="M400.4,69.7c-0.5,1.2-1,2-1.5,2.4s-1,0.6-1.6,0.6c-0.7,0-1.2-0.2-1.7-0.7s-0.7-1.1-0.7-1.7
		c0-0.2,0-0.4,0.1-0.7s0.2-0.5,0.3-0.8l21.9-47.3c0.6-1.2,1.1-2,1.5-2.5s1-0.7,1.6-0.7c0.7,0,1.3,0.2,1.8,0.7s0.7,1,0.7,1.7
		c0,0.2,0,0.4-0.1,0.6s-0.1,0.5-0.3,0.7L400.4,69.7z"/>
	<path class="st1" d="M450.7,35.4c-0.3,0-0.6-0.1-0.8-0.3s-0.3-0.4-0.3-0.6V17.8c0-0.2,0.1-0.4,0.3-0.6s0.5-0.3,0.8-0.3h1.9
		c0.3,0,0.6,0.1,0.8,0.3s0.3,0.4,0.3,0.6v16.7c0,0.2-0.1,0.4-0.3,0.6s-0.5,0.3-0.8,0.3H450.7z"/>
	<path class="st1" d="M506.7,12.9c3,0,5.4,0.3,7.2,0.9s2.6,1.4,2.6,2.4c0,0.8-0.2,1.4-0.7,1.9s-1.1,0.7-2,0.7
		c-0.6,0-1.8-0.2-3.6-0.5s-3.2-0.5-4.4-0.5c-5.2,0-8,7.2-8.3,21.6c-0.1,3.5-0.1,6.3-0.2,8.3c0,1.2-0.1,3-0.2,5.3
		c-0.3,8.5-0.5,13.9-0.8,16.2c-0.5,3.8-1.9,6.6-4,8.4s-5.2,2.8-9.1,2.8c-3.1,0-5.5-0.3-7.3-0.9s-2.6-1.4-2.6-2.4
		c0-0.8,0.2-1.4,0.7-1.9s1.1-0.7,1.9-0.7c0.6,0,1.8,0.2,3.6,0.5s3.3,0.5,4.5,0.5c5.2,0,7.9-8.6,8.2-25.7c0-1.1,0-1.9,0.1-2.4
		c0.1-6.4,0.3-11.4,0.4-15.1s0.3-6.2,0.5-7.6c0.7-4.1,2.1-7.1,4.2-9S502.6,12.9,506.7,12.9z"/>
	<path class="st1" d="M534.5,63.8h11.7c0.9,0,1.6,0.2,2,0.6s0.7,1,0.7,1.8c0,1-0.2,1.6-0.6,2s-1.2,0.5-2.3,0.5h-23
		c-0.9,0-1.6-0.2-2.1-0.6s-0.7-1.1-0.7-1.9c0-0.8,0.2-1.4,0.7-1.8s1.2-0.6,2.2-0.6h6.1V41.2h-2.4c-2.3,0-3.7-0.2-4.3-0.5
		c-0.6-0.4-0.8-1-0.8-2c0-0.8,0.2-1.4,0.7-1.8c0.5-0.4,1.2-0.6,2.1-0.6h8c0.6,0,1.1,0.1,1.4,0.4s0.5,0.6,0.5,1.1v6
		c2.2-2.8,4.5-4.9,7-6.2s5-2,7.8-2c2.1,0,3.8,0.4,5.1,1.3c1.3,0.8,1.9,1.9,1.9,3.2c0,0.9-0.3,1.6-1,2.3s-1.4,1-2.1,1
		c-0.5,0-1.4-0.4-2.7-1.1s-2.4-1.1-3.4-1.1c-1.8,0-3.8,0.7-5.8,2c-2,1.3-4.3,3.4-6.7,6.2V63.8z"/>
	<path class="st1" d="M569.3,54.1c0.2,3.4,1.3,6,3.4,7.8s5,2.8,8.6,2.8c2.7,0,5.7-0.7,9-2.2s5.2-2.2,5.9-2.2c0.7,0,1.3,0.2,1.8,0.7
		s0.7,1,0.7,1.7c0,0.7-0.2,1.3-0.7,1.9s-1.3,1.1-2.4,1.6c-2.3,1.1-4.8,2-7.3,2.6c-2.5,0.6-5,0.9-7.4,0.9c-5.3,0-9.6-1.5-12.8-4.6
		s-4.8-7.2-4.8-12.3c0-5.2,1.7-9.4,5.1-12.6s7.8-4.8,13.3-4.8c4.9,0,9,1.5,12.3,4.5s4.9,6.6,4.9,10.9c0,1.3-0.3,2.2-0.8,2.6
		s-2,0.7-4.5,0.7h-0.5H569.3z M569.5,49.5h22.9c-0.4-2.8-1.5-5-3.5-6.7s-4.4-2.5-7.3-2.5c-3.1,0-5.7,0.8-7.9,2.5
		S570.2,46.6,569.5,49.5z"/>
	<path class="st1" d="M635.1,63.8c1.8,0,3,0.2,3.5,0.5s0.8,1,0.8,1.9c0,1-0.3,1.6-0.8,2s-1.7,0.5-3.5,0.5h-21.3h-1.7
		c-0.8,0-1.5-0.2-1.9-0.6s-0.7-1.1-0.7-1.9c0-0.9,0.3-1.6,0.8-1.9s1.7-0.5,3.5-0.5h7.9V41.3h-7.9c-1.8,0-2.9-0.2-3.4-0.5
		s-0.8-1-0.8-2c0-0.9,0.2-1.5,0.7-1.9s1.1-0.6,2-0.6h1.6h21.3h1.7c0.8,0,1.5,0.2,1.9,0.6s0.7,1.1,0.7,1.9c0,1-0.3,1.6-0.8,2
		s-1.7,0.5-3.4,0.5h-7.9v22.5H635.1z"/>
	<path class="st1" d="M678.2,68.8c-0.5,0-0.8-0.1-1-0.4s-0.3-0.7-0.3-1.4v-2.9c-1.4,1.8-3.2,3.1-5.3,4.1s-4.4,1.5-6.9,1.5
		c-4.4,0-8.1-1.6-11.1-4.7s-4.5-7.1-4.5-11.8c0-4.9,1.6-8.9,4.8-12.1s7.2-4.8,11.9-4.8c2.4,0,4.6,0.4,6.5,1.3s3.6,2.1,5,3.8V27.8
		h-1.9c-2,0-3.4-0.2-4-0.5s-0.9-1-0.9-2c0-0.8,0.2-1.5,0.7-1.9s1.2-0.6,2.1-0.6h7.2c0.7,0,1.2,0.1,1.5,0.4s0.5,0.6,0.5,1.1v39.6h1.6
		c1.1,0,2,0.2,2.5,0.6s0.8,1,0.8,1.8c0,0.8-0.2,1.4-0.7,1.9s-1,0.7-1.8,0.7H678.2z M655.2,53c0,3.2,1,5.9,3.1,7.9s4.7,3.1,7.9,3.1
		c3.2,0,5.9-1.1,8-3.2s3.1-4.9,3.1-8.2c0-3.3-1-5.9-3.1-8.1s-4.7-3.2-8-3.2c-3.3,0-6,1.1-8,3.2S655.2,49.5,655.2,53z"/>
	<path class="st1" d="M725.9,50.9c-0.2-3.4-1.3-6-3.4-7.8s-5-2.8-8.6-2.8c-2.7,0-5.7,0.7-9,2.2s-5.2,2.2-5.9,2.2
		c-0.7,0-1.3-0.2-1.8-0.7s-0.7-1-0.7-1.7c0-0.7,0.2-1.3,0.7-1.9c0.5-0.6,1.3-1.1,2.4-1.6c2.3-1.1,4.8-2,7.3-2.6s5-0.9,7.4-0.9
		c5.3,0,9.6,1.5,12.8,4.6s4.8,7.2,4.8,12.3c0,5.2-1.7,9.4-5.1,12.6s-7.8,4.8-13.3,4.8c-4.9,0-9-1.5-12.3-4.5s-4.9-6.6-4.9-10.9
		c0-1.3,0.3-2.2,0.8-2.6s2-0.7,4.5-0.7h0.5H725.9z M725.7,55.5h-22.9c0.4,2.8,1.5,5,3.5,6.7s4.4,2.5,7.3,2.5c3.1,0,5.7-0.8,7.9-2.5
		S725,58.4,725.7,55.5z"/>
	<path class="st1" d="M754.2,63.8h11.7c0.9,0,1.6,0.2,2,0.6s0.7,1,0.7,1.8c0,1-0.2,1.6-0.6,2s-1.2,0.5-2.3,0.5h-23
		c-0.9,0-1.6-0.2-2.1-0.6s-0.7-1.1-0.7-1.9c0-0.8,0.2-1.4,0.7-1.8s1.2-0.6,2.2-0.6h6.1V41.2h-2.4c-2.3,0-3.7-0.2-4.3-0.5
		c-0.6-0.4-0.8-1-0.8-2c0-0.8,0.2-1.4,0.7-1.8c0.5-0.4,1.2-0.6,2.1-0.6h8c0.6,0,1.1,0.1,1.4,0.4s0.5,0.6,0.5,1.1v6
		c2.2-2.8,4.5-4.9,7-6.2s5-2,7.8-2c2.1,0,3.8,0.4,5.1,1.3c1.3,0.8,1.9,1.9,1.9,3.2c0,0.9-0.3,1.6-1,2.3s-1.4,1-2.1,1
		c-0.5,0-1.4-0.4-2.7-1.1s-2.4-1.1-3.4-1.1c-1.8,0-3.8,0.7-5.8,2c-2,1.3-4.3,3.4-6.7,6.2V63.8z"/>
	<path class="st1" d="M792.9,69.7c-0.5,1.2-1,2-1.5,2.4s-1,0.6-1.6,0.6c-0.7,0-1.2-0.2-1.7-0.7s-0.7-1.1-0.7-1.7
		c0-0.2,0-0.4,0.1-0.7s0.2-0.5,0.3-0.8l21.9-47.3c0.6-1.2,1.1-2,1.5-2.5s1-0.7,1.6-0.7c0.7,0,1.3,0.2,1.8,0.7s0.7,1,0.7,1.7
		c0,0.2,0,0.4-0.1,0.6s-0.1,0.5-0.3,0.7L792.9,69.7z"/>
	<path class="st1" d="M860.5,38.6l9.3-4c0.2,0,0.3-0.1,0.5-0.1s0.3-0.1,0.4-0.1c0.2,0,0.3,0.1,0.5,0.3s0.3,0.5,0.4,1l0.9,2.7
		c0.1,0.3,0.1,0.5,0.2,0.7s0.1,0.3,0.1,0.4c0,0.2-0.1,0.4-0.3,0.5s-0.5,0.2-0.8,0.3l-9.8,2.2l6.6,7.7c0.2,0.1,0.3,0.3,0.4,0.5
		s0.1,0.3,0.1,0.5c0,0.1-0.1,0.3-0.2,0.4s-0.4,0.4-0.6,0.6l-2.3,1.7c-0.3,0.2-0.5,0.4-0.7,0.4s-0.3,0.1-0.4,0.1
		c-0.1,0-0.3-0.1-0.5-0.2s-0.3-0.3-0.5-0.6l-5.2-8.7l-5.2,8.7c-0.2,0.3-0.3,0.5-0.5,0.6s-0.3,0.2-0.5,0.2c-0.1,0-0.2,0-0.4-0.1
		s-0.4-0.2-0.6-0.4l-2.2-1.7c-0.3-0.2-0.5-0.4-0.7-0.6S848,51.1,848,51c0-0.1,0-0.3,0.1-0.4s0.2-0.3,0.4-0.5l6.6-7.7l-9.8-2.2
		c-0.4-0.1-0.7-0.2-0.9-0.3s-0.3-0.3-0.3-0.5c0,0,0-0.2,0.1-0.4s0.1-0.4,0.2-0.5l0.9-2.7c0.1-0.5,0.3-0.8,0.4-1s0.3-0.3,0.5-0.3
		s0.4,0,0.5,0s0.3,0.1,0.4,0.1l9.3,4l-0.9-10.1v-0.4c0-0.4,0.1-0.7,0.3-0.8s0.6-0.2,1.3-0.2h2.7c0.7,0,1.1,0.1,1.3,0.2
		s0.3,0.4,0.3,0.8v0.4L860.5,38.6z"/>
</g>
</svg>
