<?xml version="1.0" encoding="utf-8"?>
<!-- Generator: Adobe Illustrator 27.7.0, SVG Export Plug-In . SVG Version: 6.00 Build 0)  -->
<svg version="1.1" id="Layer_1" xmlns="http://www.w3.org/2000/svg" xmlns:xlink="http://www.w3.org/1999/xlink" x="0px" y="0px"
	 viewBox="0 0 508 198" style="enable-background:new 0 0 508 198;" xml:space="preserve">
<style type="text/css">
	.st0{fill:#FFFFFF;}
	.st1{fill:#7800FF;}
</style>
<rect x="4.7" y="5.7" class="st0" width="365.4" height="87.6"/>
<rect x="4.7" y="105.4" class="st0" width="454.6" height="87.6"/>
<g>
	<path class="st1" d="M27.7,72.3c-0.5,1.2-1,2-1.5,2.4s-1,0.6-1.6,0.6c-0.7,0-1.2-0.2-1.7-0.7s-0.7-1.1-0.7-1.7c0-0.2,0-0.4,0.1-0.7
		s0.2-0.5,0.3-0.8l21.9-47.3c0.6-1.2,1.1-2,1.5-2.5c0.4-0.4,1-0.7,1.6-0.7c0.7,0,1.3,0.2,1.8,0.7c0.5,0.5,0.7,1,0.7,1.7
		c0,0.2,0,0.4-0.1,0.6c-0.1,0.2-0.1,0.5-0.3,0.7L27.7,72.3z"/>
	<path class="st1" d="M77.9,37.9c-0.3,0-0.6-0.1-0.8-0.3c-0.2-0.2-0.3-0.4-0.3-0.6V20.3c0-0.2,0.1-0.4,0.3-0.6
		c0.2-0.2,0.5-0.3,0.8-0.3h1.9c0.3,0,0.6,0.1,0.8,0.3c0.2,0.2,0.3,0.4,0.3,0.6V37c0,0.2-0.1,0.4-0.3,0.6c-0.2,0.2-0.5,0.3-0.8,0.3
		H77.9z"/>
	<path class="st1" d="M119.7,30.4h-6c-2.3,0-3.7-0.2-4.3-0.5c-0.6-0.4-0.9-1-0.9-2c0-0.8,0.2-1.5,0.7-1.9c0.5-0.4,1.2-0.6,2.1-0.6
		H123c0.6,0,1.1,0.1,1.5,0.4c0.4,0.3,0.5,0.6,0.5,1.1v39.6h11c0.9,0,1.5,0.2,2,0.6c0.4,0.4,0.6,1,0.6,1.8c0,1-0.2,1.6-0.6,2
		c-0.4,0.4-1.1,0.5-2.2,0.5h-25.9c-0.9,0-1.6-0.2-2.1-0.6c-0.5-0.4-0.7-1.1-0.7-1.9c0-0.8,0.2-1.4,0.7-1.8c0.5-0.4,1.2-0.6,2.2-0.6
		h9.7V30.4z"/>
	<path class="st1" d="M168.5,66.4h11.3c0.9,0,1.6,0.2,2,0.6c0.4,0.4,0.7,1,0.7,1.8c0,1-0.2,1.6-0.6,2c-0.4,0.4-1.2,0.5-2.3,0.5
		h-27.2c-0.9,0-1.6-0.2-2.1-0.6c-0.5-0.4-0.7-1.1-0.7-1.9c0-0.8,0.2-1.4,0.7-1.8c0.5-0.4,1.2-0.6,2.2-0.6h10.7V43.8h-6.9
		c-1,0-1.7-0.2-2.2-0.6c-0.5-0.4-0.8-1.1-0.8-1.9c0-0.8,0.2-1.4,0.7-1.8c0.5-0.4,1.2-0.6,2.1-0.6h10.3c0.6,0,1.1,0.1,1.5,0.4
		c0.4,0.3,0.5,0.6,0.5,1.1V66.4z M162,28.7c0-2.5,0.2-4.1,0.7-4.8c0.5-0.7,1.4-1,2.9-1c1.5,0,2.4,0.3,2.9,0.8
		c0.5,0.6,0.7,1.9,0.7,3.9c0,2-0.2,3.3-0.7,3.7c-0.4,0.5-1.4,0.7-2.9,0.7c-1.5,0-2.5-0.2-2.9-0.7C162.3,31,162,30.1,162,28.7z"/>
	<path class="st1" d="M208.1,46.1c-0.6,0-1-0.1-1.3-0.4c-0.3-0.3-0.4-0.9-0.5-1.8l-4.6-13v-0.4c0-0.6,0.1-1,0.4-1.3
		c0.3-0.3,0.7-0.4,1.2-0.4h10.4c0.5,0,0.9,0.1,1.2,0.4c0.3,0.3,0.4,0.7,0.4,1.3v0.4l-4.6,13c-0.1,0.9-0.3,1.5-0.5,1.8
		c-0.3,0.3-0.7,0.4-1.3,0.4H208.1z M208.1,54c-0.6,0-1,0.1-1.3,0.4c-0.3,0.3-0.4,0.9-0.5,1.8l-4.6,13v0.4c0,0.6,0.1,1,0.4,1.3
		c0.3,0.3,0.7,0.4,1.2,0.4h10.4c0.5,0,0.9-0.1,1.2-0.4c0.3-0.3,0.4-0.7,0.4-1.3v-0.4l-4.6-13c-0.1-0.9-0.3-1.5-0.5-1.8
		c-0.3-0.3-0.7-0.4-1.3-0.4H208.1z"/>
	<path class="st1" d="M236.4,68.8v-6.3c0-1,0.2-1.8,0.6-2.2c0.4-0.4,1-0.7,1.9-0.7c1,0,1.7,0.7,2.3,2c0.4,0.8,0.7,1.4,1,1.8
		c1,1.3,2.4,2.3,4.4,3c1.9,0.8,4,1.1,6.4,1.1c2.5,0,4.5-0.5,6-1.5c1.5-1,2.2-2.3,2.2-4c0-1.7-0.6-2.8-1.8-3.6
		c-1.2-0.7-3.3-1.1-6.2-1.1h-1.9c-4.8,0-8.4-0.8-10.9-2.5c-2.5-1.7-3.8-4.1-3.8-7.2c0-3.1,1.2-5.5,3.7-7.2c2.4-1.7,5.9-2.6,10.3-2.6
		c1.8,0,3.6,0.3,5.5,0.8c1.9,0.5,2.9,0.8,3,0.8c0.3,0,0.8-0.2,1.5-0.7c0.7-0.5,1.4-0.7,2.1-0.7c0.8,0,1.4,0.3,1.8,0.9
		c0.4,0.6,0.6,1.5,0.6,2.6v4.1c0,1.2-0.2,2.1-0.6,2.7c-0.4,0.6-1,0.8-1.8,0.8c-0.7,0-1.6-0.6-2.6-1.8c-0.7-0.8-1.3-1.4-1.8-1.9
		c-1.2-1.1-2.6-2-4-2.5c-1.4-0.5-3.1-0.8-5-0.8c-2.2,0-4,0.5-5.3,1.5c-1.3,1-2,2.2-2,3.7c0,1.5,0.7,2.5,2.1,3.2
		c1.4,0.6,4.4,1,8.9,1.1c4.9,0.1,8.4,1,10.7,2.5s3.4,4,3.4,7.3c0,3.2-1.2,5.7-3.7,7.6c-2.5,1.9-5.8,2.8-10.1,2.8
		c-1.3,0-2.8-0.1-4.5-0.4c-1.6-0.2-3.7-0.7-6.2-1.2c-0.8,0.5-1.5,0.9-2.1,1.2c-0.6,0.3-1.1,0.4-1.5,0.4c-0.8,0-1.4-0.3-1.9-0.9
		C236.6,70.7,236.4,69.9,236.4,68.8z"/>
	<path class="st1" d="M292.5,30.4h-6c-2.3,0-3.7-0.2-4.3-0.5c-0.6-0.4-0.9-1-0.9-2c0-0.8,0.2-1.5,0.7-1.9c0.5-0.4,1.2-0.6,2.1-0.6
		h11.6c0.6,0,1.1,0.1,1.5,0.4c0.4,0.3,0.5,0.6,0.5,1.1v39.6h11c0.9,0,1.5,0.2,2,0.6c0.4,0.4,0.6,1,0.6,1.8c0,1-0.2,1.6-0.6,2
		c-0.4,0.4-1.1,0.5-2.2,0.5h-25.9c-0.9,0-1.6-0.2-2.1-0.6c-0.5-0.4-0.7-1.1-0.7-1.9c0-0.8,0.2-1.4,0.7-1.8c0.5-0.4,1.2-0.6,2.2-0.6
		h9.7V30.4z"/>
	<path class="st1" d="M330.2,72.3c-0.5,1.2-1,2-1.5,2.4s-1,0.6-1.6,0.6c-0.7,0-1.2-0.2-1.7-0.7s-0.7-1.1-0.7-1.7
		c0-0.2,0-0.4,0.1-0.7s0.2-0.5,0.3-0.8L347,24.1c0.6-1.2,1.1-2,1.5-2.5c0.4-0.4,1-0.7,1.6-0.7c0.7,0,1.3,0.2,1.8,0.7
		c0.5,0.5,0.7,1,0.7,1.7c0,0.2,0,0.4-0.1,0.6c-0.1,0.2-0.1,0.5-0.3,0.7L330.2,72.3z"/>
	<path class="st1" d="M27.7,172.3c-0.5,1.2-1,2-1.5,2.4s-1,0.6-1.6,0.6c-0.7,0-1.2-0.2-1.7-0.7s-0.7-1.1-0.7-1.7
		c0-0.2,0-0.4,0.1-0.7s0.2-0.5,0.3-0.8l21.9-47.3c0.6-1.2,1.1-2,1.5-2.5c0.4-0.4,1-0.7,1.6-0.7c0.7,0,1.3,0.2,1.8,0.7
		c0.5,0.5,0.7,1,0.7,1.7c0,0.2,0,0.4-0.1,0.6c-0.1,0.2-0.1,0.5-0.3,0.7L27.7,172.3z"/>
	<path class="st1" d="M77.9,137.9c-0.3,0-0.6-0.1-0.8-0.3c-0.2-0.2-0.3-0.4-0.3-0.6v-16.7c0-0.2,0.1-0.4,0.3-0.6
		c0.2-0.2,0.5-0.3,0.8-0.3h1.9c0.3,0,0.6,0.1,0.8,0.3c0.2,0.2,0.3,0.4,0.3,0.6V137c0,0.2-0.1,0.4-0.3,0.6c-0.2,0.2-0.5,0.3-0.8,0.3
		H77.9z"/>
	<path class="st1" d="M133.9,115.5c3,0,5.4,0.3,7.2,0.9c1.7,0.6,2.6,1.4,2.6,2.4c0,0.8-0.2,1.4-0.7,1.9c-0.5,0.5-1.1,0.7-2,0.7
		c-0.6,0-1.8-0.2-3.6-0.5c-1.8-0.4-3.2-0.5-4.4-0.5c-5.2,0-8,7.2-8.3,21.6c-0.1,3.5-0.1,6.3-0.2,8.3c0,1.2-0.1,3-0.2,5.3
		c-0.3,8.5-0.5,13.9-0.8,16.2c-0.5,3.8-1.9,6.6-4,8.4s-5.2,2.8-9.1,2.8c-3.1,0-5.5-0.3-7.3-0.9c-1.7-0.6-2.6-1.4-2.6-2.4
		c0-0.8,0.2-1.4,0.7-1.9s1.1-0.7,1.9-0.7c0.6,0,1.8,0.2,3.6,0.5s3.3,0.5,4.5,0.5c5.2,0,7.9-8.6,8.2-25.7c0-1.1,0-1.9,0.1-2.4
		c0.1-6.4,0.3-11.4,0.4-15.1c0.2-3.7,0.3-6.2,0.5-7.6c0.7-4.1,2.1-7.1,4.2-9C126.7,116.4,129.8,115.5,133.9,115.5z"/>
	<path class="st1" d="M161.8,166.4h11.7c0.9,0,1.6,0.2,2,0.6c0.4,0.4,0.7,1,0.7,1.8c0,1-0.2,1.6-0.6,2c-0.4,0.4-1.2,0.5-2.3,0.5h-23
		c-0.9,0-1.6-0.2-2.1-0.6c-0.5-0.4-0.7-1.1-0.7-1.9c0-0.8,0.2-1.4,0.7-1.8c0.5-0.4,1.2-0.6,2.2-0.6h6.1v-22.6h-2.4
		c-2.3,0-3.7-0.2-4.3-0.5c-0.6-0.4-0.8-1-0.8-2c0-0.8,0.2-1.4,0.7-1.8s1.2-0.6,2.1-0.6h8c0.6,0,1.1,0.1,1.4,0.4
		c0.3,0.2,0.5,0.6,0.5,1.1v6c2.2-2.8,4.5-4.9,7-6.2c2.4-1.4,5-2,7.8-2c2.1,0,3.8,0.4,5.1,1.3c1.3,0.8,1.9,1.9,1.9,3.2
		c0,0.9-0.3,1.6-1,2.3c-0.6,0.7-1.4,1-2.1,1c-0.5,0-1.4-0.4-2.7-1.1c-1.3-0.7-2.4-1.1-3.4-1.1c-1.8,0-3.8,0.7-5.8,2
		c-2,1.3-4.3,3.4-6.7,6.2V166.4z"/>
	<path class="st1" d="M196.6,156.6c0.2,3.4,1.3,6,3.4,7.8c2.1,1.8,5,2.8,8.6,2.8c2.7,0,5.7-0.7,9-2.2c3.2-1.5,5.2-2.2,5.9-2.2
		c0.7,0,1.3,0.2,1.8,0.7c0.5,0.4,0.7,1,0.7,1.7c0,0.7-0.2,1.3-0.7,1.9c-0.5,0.6-1.3,1.1-2.4,1.6c-2.3,1.1-4.8,2-7.3,2.6
		c-2.5,0.6-5,0.9-7.4,0.9c-5.3,0-9.6-1.5-12.8-4.6c-3.2-3.1-4.8-7.2-4.8-12.3c0-5.2,1.7-9.4,5.1-12.6c3.4-3.2,7.8-4.8,13.3-4.8
		c4.9,0,9,1.5,12.3,4.5c3.3,3,4.9,6.6,4.9,10.9c0,1.3-0.3,2.2-0.8,2.6c-0.6,0.4-2,0.7-4.5,0.7h-0.5H196.6z M196.8,152h22.9
		c-0.4-2.8-1.5-5-3.5-6.7c-2-1.7-4.4-2.5-7.3-2.5c-3.1,0-5.7,0.8-7.9,2.5C198.9,146.8,197.4,149.1,196.8,152z"/>
	<path class="st1" d="M262.4,166.4c1.8,0,3,0.2,3.5,0.5c0.5,0.3,0.8,1,0.8,1.9c0,1-0.3,1.6-0.8,2c-0.5,0.4-1.7,0.5-3.5,0.5H241h-1.7
		c-0.8,0-1.5-0.2-1.9-0.6c-0.4-0.4-0.7-1.1-0.7-1.9c0-0.9,0.3-1.6,0.8-1.9c0.5-0.3,1.7-0.5,3.5-0.5h7.9v-22.5H241
		c-1.8,0-2.9-0.2-3.4-0.5c-0.5-0.4-0.8-1-0.8-2c0-0.9,0.2-1.5,0.7-1.9c0.4-0.4,1.1-0.6,2-0.6h1.6h21.3h1.7c0.8,0,1.5,0.2,1.9,0.6
		c0.4,0.4,0.7,1.1,0.7,1.9c0,1-0.3,1.6-0.8,2c-0.5,0.4-1.7,0.5-3.4,0.5h-7.9v22.5H262.4z"/>
	<path class="st1" d="M305.5,171.3c-0.5,0-0.8-0.1-1-0.4c-0.2-0.2-0.3-0.7-0.3-1.4v-2.9c-1.4,1.8-3.2,3.1-5.3,4.1
		c-2.1,1-4.4,1.5-6.9,1.5c-4.4,0-8.1-1.6-11.1-4.7c-3-3.2-4.5-7.1-4.5-11.8c0-4.9,1.6-8.9,4.8-12.1c3.2-3.2,7.2-4.8,11.9-4.8
		c2.4,0,4.6,0.4,6.5,1.3c1.9,0.9,3.6,2.1,5,3.8v-13.5h-1.9c-2,0-3.4-0.2-4-0.5c-0.6-0.4-0.9-1-0.9-2c0-0.8,0.2-1.5,0.7-1.9
		c0.5-0.4,1.2-0.6,2.1-0.6h7.2c0.7,0,1.2,0.1,1.5,0.4c0.3,0.2,0.5,0.6,0.5,1.1v39.6h1.6c1.1,0,2,0.2,2.5,0.6c0.5,0.4,0.8,1,0.8,1.8
		c0,0.8-0.2,1.4-0.7,1.9c-0.4,0.4-1,0.7-1.8,0.7H305.5z M282.4,155.5c0,3.2,1,5.9,3.1,7.9c2.1,2.1,4.7,3.1,7.9,3.1
		c3.2,0,5.9-1.1,8-3.2c2.1-2.1,3.1-4.9,3.1-8.2c0-3.3-1-5.9-3.1-8.1s-4.7-3.2-8-3.2c-3.3,0-6,1.1-8,3.2
		C283.5,149.3,282.4,152.1,282.4,155.5z"/>
	<path class="st1" d="M353.2,153.5c-0.2-3.4-1.3-6-3.4-7.8c-2.1-1.8-5-2.8-8.6-2.8c-2.7,0-5.7,0.7-9,2.2c-3.2,1.5-5.2,2.2-5.9,2.2
		c-0.7,0-1.3-0.2-1.8-0.7c-0.5-0.4-0.7-1-0.7-1.7c0-0.7,0.2-1.3,0.7-1.9c0.5-0.6,1.3-1.1,2.4-1.6c2.3-1.1,4.8-2,7.3-2.6
		s5-0.9,7.4-0.9c5.3,0,9.6,1.5,12.8,4.6c3.2,3.1,4.8,7.2,4.8,12.3c0,5.2-1.7,9.4-5.1,12.6c-3.4,3.2-7.8,4.8-13.3,4.8
		c-4.9,0-9-1.5-12.3-4.5c-3.3-3-4.9-6.6-4.9-10.9c0-1.3,0.3-2.2,0.8-2.6c0.6-0.4,2-0.7,4.5-0.7h0.5H353.2z M353,158.1h-22.9
		c0.4,2.8,1.5,5,3.5,6.7c2,1.7,4.4,2.5,7.3,2.5c3.1,0,5.7-0.8,7.9-2.5C350.9,163.3,352.3,161,353,158.1z"/>
	<path class="st1" d="M381.5,166.4h11.7c0.9,0,1.6,0.2,2,0.6c0.4,0.4,0.7,1,0.7,1.8c0,1-0.2,1.6-0.6,2c-0.4,0.4-1.2,0.5-2.3,0.5h-23
		c-0.9,0-1.6-0.2-2.1-0.6c-0.5-0.4-0.7-1.1-0.7-1.9c0-0.8,0.2-1.4,0.7-1.8c0.5-0.4,1.2-0.6,2.2-0.6h6.1v-22.6h-2.4
		c-2.3,0-3.7-0.2-4.3-0.5c-0.6-0.4-0.8-1-0.8-2c0-0.8,0.2-1.4,0.7-1.8s1.2-0.6,2.1-0.6h8c0.6,0,1.1,0.1,1.4,0.4
		c0.3,0.2,0.5,0.6,0.5,1.1v6c2.2-2.8,4.5-4.9,7-6.2c2.4-1.4,5-2,7.8-2c2.1,0,3.8,0.4,5.1,1.3c1.3,0.8,1.9,1.9,1.9,3.2
		c0,0.9-0.3,1.6-1,2.3s-1.4,1-2.1,1c-0.5,0-1.4-0.4-2.7-1.1c-1.3-0.7-2.4-1.1-3.4-1.1c-1.8,0-3.8,0.7-5.8,2c-2,1.3-4.3,3.4-6.7,6.2
		V166.4z"/>
	<path class="st1" d="M420.2,172.3c-0.5,1.2-1,2-1.5,2.4s-1,0.6-1.6,0.6c-0.7,0-1.2-0.2-1.7-0.7s-0.7-1.1-0.7-1.7
		c0-0.2,0-0.4,0.1-0.7s0.2-0.5,0.3-0.8l21.9-47.3c0.6-1.2,1.1-2,1.5-2.5c0.4-0.4,1-0.7,1.6-0.7c0.7,0,1.3,0.2,1.8,0.7
		c0.5,0.5,0.7,1,0.7,1.7c0,0.2,0,0.4-0.1,0.6c-0.1,0.2-0.1,0.5-0.3,0.7L420.2,172.3z"/>
	<path class="st1" d="M487.8,141.2l9.3-4c0.2,0,0.3-0.1,0.5-0.1c0.2,0,0.3-0.1,0.4-0.1c0.2,0,0.3,0.1,0.5,0.3s0.3,0.5,0.4,1l0.9,2.7
		c0.1,0.3,0.1,0.5,0.2,0.7s0.1,0.3,0.1,0.4c0,0.2-0.1,0.4-0.3,0.5s-0.5,0.2-0.8,0.3l-9.8,2.2l6.6,7.7c0.2,0.1,0.3,0.3,0.4,0.5
		s0.1,0.3,0.1,0.5c0,0.1-0.1,0.3-0.2,0.4s-0.4,0.4-0.6,0.6l-2.3,1.7c-0.3,0.2-0.5,0.4-0.7,0.4c-0.2,0.1-0.3,0.1-0.4,0.1
		c-0.1,0-0.3-0.1-0.5-0.2s-0.3-0.3-0.5-0.6l-5.2-8.7l-5.2,8.7c-0.2,0.3-0.3,0.5-0.5,0.6c-0.2,0.1-0.3,0.2-0.5,0.2
		c-0.1,0-0.2,0-0.4-0.1c-0.2-0.1-0.4-0.2-0.6-0.4l-2.2-1.7c-0.3-0.2-0.5-0.4-0.7-0.6s-0.2-0.3-0.2-0.5c0-0.1,0-0.3,0.1-0.4
		s0.2-0.3,0.4-0.5l6.6-7.7l-9.8-2.2c-0.4-0.1-0.7-0.2-0.9-0.3c-0.2-0.2-0.3-0.3-0.3-0.5c0,0,0-0.2,0.1-0.4s0.1-0.4,0.2-0.5l0.9-2.7
		c0.1-0.5,0.3-0.8,0.4-1s0.3-0.3,0.5-0.3s0.4,0,0.5,0c0.1,0,0.3,0.1,0.4,0.1l9.3,4l-0.9-10.1v-0.4c0-0.4,0.1-0.7,0.3-0.8
		s0.6-0.2,1.3-0.2h2.7c0.7,0,1.1,0.1,1.3,0.2s0.3,0.4,0.3,0.8v0.4L487.8,141.2z"/>
</g>
</svg>
